# xmcd
# 
# Track frame offsets:
#     150
#     34985
#     70240
#     99315
#     133559
#     168728
#     184688
#     211762
#     217172
#     240269
#     245831
#     259729
# 
# Disc length: 3509
# 
# Revision: 1
# Processed by: cddbd v1.5.2PL0 Copyright (c) Steve Scherf et al.
# Submitted via: BonkEnc v1.0.8
# 
DISCID=af0db30c
DTITLE=Francesco Nastro, Aldo Vigorito, Peppe La Pusata - Heavy Feeling
DYEAR=2000
DGENRE=Contemporary Jazz
TTITLE0=heavy feeling
TTITLE1=eu nao exito sem voce
TTITLE2=toto', peppinio...e la dolce vita
TTITLE3=na vove nachitarra e un poco e luna
TTITLE4=first thunderstorm
TTITLE5=and now quiet
TTITLE6=we are in a hurry
TTITLE7=recreation 2
TTITLE8=flight low
TTITLE9=recreation 1
TTITLE10=childrens play
TTITLE11=drum party
EXTD=YEAR: 2001
EXTT0=
EXTT1=
EXTT2=
EXTT3=
EXTT4=
EXTT5=
EXTT6=
EXTT7=
EXTT8=
EXTT9=
EXTT10=
EXTT11=
PLAYORDER=
